<?xml version="1.0" standalone="no"?>
<!DOCTYPE svg PUBLIC "-//W3C//DTD SVG 20010904//EN"
 "http://www.w3.org/TR/2001/REC-SVG-20010904/DTD/svg10.dtd">
<svg version="1.0" xmlns="http://www.w3.org/2000/svg"
 width="500.000000pt" height="500.000000pt" viewBox="0 0 500.000000 500.000000"
 preserveAspectRatio="xMidYMid meet">
<metadata>
Created by potrace 1.11, written by Peter Selinger 2001-2013
</metadata>
<g transform="translate(0.000000,500.000000) scale(0.100000,-0.100000)"
fill="#000000" stroke="none">
<path d="M0 2500 l0 -2500 2500 0 2500 0 0 2500 0 2500 -2500 0 -2500 0 0
-2500z m1775 296 c193 -465 353 -847 355 -850 3 -2 151 378 329 845 l324 849
389 2 c213 0 394 1 401 2 7 1 13 -14 15 -35 l3 -36 -68 -7 c-88 -9 -147 -36
-168 -76 -9 -17 -20 -68 -25 -113 -13 -107 -13 -1844 0 -1962 14 -134 47 -168
178 -187 l82 -11 0 -32 0 -31 -560 0 -560 0 0 31 0 31 86 12 c138 18 177 52
194 167 7 46 9 391 8 1006 l-3 937 -420 -1097 -420 -1096 -30 -3 -30 -3 -470
1123 -470 1122 -3 -924 c-1 -606 1 -949 8 -993 23 -150 87 -209 258 -237 l72
-12 0 -32 0 -33 -350 1 -350 1 0 31 c0 30 2 32 67 48 123 30 174 95 193 246 7
58 10 387 8 1020 -3 912 -3 936 -23 974 -29 58 -61 76 -156 90 -76 11 -84 14
-87 35 -2 12 -2 28 1 34 3 9 113 12 438 10 l434 -2 350 -845z m2516 -1028 c76
-34 123 -79 156 -146 25 -51 28 -68 28 -157 0 -89 -3 -106 -28 -157 -33 -67
-80 -111 -157 -147 -50 -24 -66 -26 -180 -26 -114 0 -130 2 -180 26 -121 57
-180 144 -188 278 -8 141 41 245 148 308 72 44 116 53 240 49 88 -2 114 -7
161 -28z"/>
</g>
</svg>
